<?xml version="1.0" encoding="UTF-8" standalone="no"?>
<svg
   xmlns:dc="http://purl.org/dc/elements/1.1/"
   xmlns:cc="http://creativecommons.org/ns#"
   xmlns:rdf="http://www.w3.org/1999/02/22-rdf-syntax-ns#"
   xmlns:svg="http://www.w3.org/2000/svg"
   xmlns="http://www.w3.org/2000/svg"
   xmlns:sodipodi="http://sodipodi.sourceforge.net/DTD/sodipodi-0.dtd"
   xmlns:inkscape="http://www.inkscape.org/namespaces/inkscape"
   viewBox="0 0 576 512"
   version="1.1"
   id="svg4"
   sodipodi:docname="battery-half.svg"
   inkscape:version="1.0.1 (3bc2e813f5, 2020-09-07)">
  <metadata
     id="metadata10">
    <rdf:RDF>
      <cc:Work
         rdf:about="">
        <dc:format>image/svg+xml</dc:format>
        <dc:type
           rdf:resource="http://purl.org/dc/dcmitype/StillImage" />
      </cc:Work>
    </rdf:RDF>
  </metadata>
  <defs
     id="defs8" />
  <sodipodi:namedview
     pagecolor="#ffffff"
     bordercolor="#666666"
     borderopacity="1"
     objecttolerance="10"
     gridtolerance="10"
     guidetolerance="10"
     inkscape:pageopacity="0"
     inkscape:pageshadow="2"
     inkscape:window-width="1920"
     inkscape:window-height="1017"
     id="namedview6"
     showgrid="false"
     inkscape:zoom="1"
     inkscape:cx="-106.92631"
     inkscape:cy="108.54103"
     inkscape:window-x="-8"
     inkscape:window-y="-8"
     inkscape:window-maximized="1"
     inkscape:current-layer="svg4"
     inkscape:document-rotation="0" />
  <!--! Font Awesome Free 6.2.1 by @fontawesome - https://fontawesome.com License - https://fontawesome.com/license/free (Icons: CC BY 4.0, Fonts: SIL OFL 1.1, Code: MIT License) Copyright 2022 Fonticons, Inc. -->
  <path
     d="M 64.210933,382.14354 C 35.634042,356.41279 33.328795,312.42606 59.059544,283.84917 L 282.6027,35.579346 C 308.33345,7.0024554 352.32018,4.6972084 380.89707,30.427957 l 10.34458,9.314297 c 10.30394,-11.443687 27.87406,-12.364498 39.31775,-2.060556 l 41.3783,37.257193 c 11.44368,10.303942 12.3645,27.874059 2.06056,39.317749 l 10.34457,9.3143 c 28.57689,25.73075 30.88213,69.71748 5.15139,98.29437 L 265.95106,470.13514 c -25.73075,28.57689 -69.71748,30.88214 -98.29437,5.15138 z m 36.226917,-61.03717 c -5.122866,5.68951 -4.659241,14.53601 1.03028,19.65887 l 103.44576,93.14298 c 5.68951,5.12286 14.53601,4.65924 19.65887,-1.03028 L 448.11591,184.60812 c 5.12287,-5.68952 4.65924,-14.53602 -1.03028,-19.65888 L 343.63987,71.806261 c -5.68951,-5.122865 -14.53601,-4.659239 -19.65887,1.030277 z m 141.77503,-115.85089 82.7566,74.51438 -111.77158,124.13491 -82.75661,-74.51439 z"
     id="path2"
     style="stroke-width:0.87;stroke:none;fill:#e3dbdb;fill-opacity:1;stroke-miterlimit:4;stroke-dasharray:none"
     inkscape:export-xdpi="4"
     inkscape:export-ydpi="4" />
</svg>
